<svg width="72" height="86" viewBox="0 0 72 86" fill="none" xmlns="http://www.w3.org/2000/svg">
<g opacity="0.3">
<path opacity="0.3" d="M50.1526 17.952C48.2088 17.9501 46.345 17.1771 44.9705 15.8026C43.596 14.428 42.823 12.5643 42.8211 10.6205V0.444458H10.0602C7.52259 0.444458 5.08894 1.45252 3.2946 3.24687C1.50025 5.04121 0.492187 7.47486 0.492188 10.0124V67.6907C0.495956 70.2258 1.50567 72.6558 3.29961 74.4471C5.09355 76.2384 7.52505 77.2445 10.0602 77.2445H49.3882C51.9239 77.2445 54.356 76.2379 56.15 74.4458C57.9441 72.6538 58.9534 70.2229 58.9562 67.6871V17.952H50.1526Z" fill="#5B5B5B"/>
</g>
<path d="M58.9554 17.952H50.1519C48.208 17.9501 46.3443 17.1771 44.9697 15.8026C43.5952 14.428 42.8222 12.5643 42.8203 10.6205V0.444458L58.9554 17.952Z" fill="#5B5B5B"/>
<path d="M65.8925 61.1022H21.4339C18.2802 61.1022 15.7236 63.6588 15.7236 66.8125V80.0676C15.7236 83.2212 18.2802 85.7778 21.4339 85.7778H65.8925C69.0462 85.7778 71.6027 83.2212 71.6027 80.0676V66.8125C71.6027 63.6588 69.0462 61.1022 65.8925 61.1022Z" fill="#5B5B5B"/>
<path d="M28.6021 76.3094V78.8943H25.9248V76.3094H28.6021Z" fill="white"/>
<path d="M32.5347 75.1467V78.8943H29.9463V68.2027H34.1347C35.4076 68.2027 36.3759 68.5179 37.0396 69.1485C37.3765 69.4789 37.6397 69.8769 37.8119 70.3163C37.9841 70.7556 38.0614 71.2265 38.0387 71.6978C38.0499 72.3197 37.8953 72.9333 37.5907 73.4756C37.282 74.0063 36.8213 74.4323 36.2681 74.6987C35.6029 75.016 34.8714 75.1696 34.1347 75.1467H32.5347ZM35.4076 71.6978C35.4076 70.7497 34.8885 70.2756 33.8503 70.2756H32.5347V73.0596H33.8503C34.8885 73.0691 35.4076 72.6151 35.4076 71.6978Z" fill="white"/>
<path d="M48.8051 78.8943H46.2202L41.8896 72.3307V78.8943H39.3047V68.2027H41.8896L46.2167 74.8267V68.2027H48.8016L48.8051 78.8943Z" fill="white"/>
<path d="M58.9059 69.0667C59.7687 69.7123 60.3484 70.6666 60.5237 71.7298H57.786C57.6064 71.349 57.3181 71.0298 56.9575 70.8125C56.5501 70.5709 56.0835 70.4478 55.61 70.4569C55.2421 70.4417 54.8754 70.5074 54.5356 70.6493C54.1959 70.7912 53.8915 71.0059 53.6437 71.2783C53.1242 71.9025 52.8601 72.7002 52.9042 73.5112C52.9042 74.528 53.1637 75.3091 53.6828 75.8543C53.9746 76.1375 54.3224 76.3566 54.7039 76.4974C55.0854 76.6383 55.4921 76.6977 55.898 76.672C56.478 76.6821 57.0457 76.5037 57.5157 76.1636C57.9945 75.8052 58.3399 75.2971 58.4971 74.72H55.2331V72.8605H60.6624V75.4667C60.4521 76.1026 60.1227 76.6927 59.6917 77.2054C59.2263 77.7573 58.6463 78.2013 57.9922 78.5067C57.2505 78.8491 56.4409 79.0193 55.6242 79.0045C54.6318 79.0296 53.6504 78.7916 52.7797 78.3147C51.983 77.868 51.3342 77.1982 50.9131 76.3876C50.4624 75.5147 50.2363 74.5432 50.2553 73.5609C50.234 72.5728 50.4601 71.595 50.9131 70.7165C51.3336 69.9079 51.9795 69.2385 52.7726 68.7894C53.6307 68.3168 54.5986 68.08 55.5779 68.1031C56.7636 68.045 57.9348 68.3841 58.9059 69.0667Z" fill="white"/>
<path d="M19.9406 24.1671H15.0518V29.056H19.9406V24.1671Z" fill="#5B5B5B"/>
<path d="M24.8332 29.056H19.9443V33.9449H24.8332V29.056Z" fill="#5B5B5B"/>
<path d="M29.7219 24.1671H24.833V29.056H29.7219V24.1671Z" fill="#5B5B5B"/>
<path d="M34.6106 29.056H29.7217V33.9449H34.6106V29.056Z" fill="#5B5B5B"/>
<path d="M39.5071 24.1671H34.6182V29.056H39.5071V24.1671Z" fill="#5B5B5B"/>
<path d="M44.3957 29.056H39.5068V33.9449H44.3957V29.056Z" fill="#5B5B5B"/>
<path d="M19.9406 33.9378H15.0518V38.8267H19.9406V33.9378Z" fill="#5B5B5B"/>
<path d="M24.8332 38.8267H19.9443V43.7155H24.8332V38.8267Z" fill="#5B5B5B"/>
<path d="M29.7219 33.9378H24.833V38.8267H29.7219V33.9378Z" fill="#5B5B5B"/>
<path d="M34.6106 38.8267H29.7217V43.7155H34.6106V38.8267Z" fill="#5B5B5B"/>
<path d="M39.5071 33.9378H34.6182V38.8267H39.5071V33.9378Z" fill="#5B5B5B"/>
<path d="M44.3957 38.8267H39.5068V43.7155H44.3957V38.8267Z" fill="#5B5B5B"/>
<path d="M19.9406 43.7547H15.0518V48.6436H19.9406V43.7547Z" fill="#5B5B5B"/>
<path d="M24.8332 48.6436H19.9443V53.5325H24.8332V48.6436Z" fill="#5B5B5B"/>
<path d="M29.7219 43.7547H24.833V48.6436H29.7219V43.7547Z" fill="#5B5B5B"/>
<path d="M34.6106 48.6436H29.7217V53.5325H34.6106V48.6436Z" fill="#5B5B5B"/>
<path d="M39.5071 43.7547H34.6182V48.6436H39.5071V43.7547Z" fill="#5B5B5B"/>
<path d="M44.3957 48.6436H39.5068V53.5325H44.3957V48.6436Z" fill="#5B5B5B"/>
</svg>
