<svg width="108" height="108" viewBox="0 0 108 108" fill="none" xmlns="http://www.w3.org/2000/svg">
<path fill-rule="evenodd" clip-rule="evenodd" d="M54 13.5001C31.6325 13.5001 13.5 31.6326 13.5 54.0001C13.5 76.3676 31.6325 94.5001 54 94.5001C76.3675 94.5001 94.5 76.3676 94.5 54.0001C94.5 31.6326 76.3675 13.5001 54 13.5001ZM4.5 54.0001C4.5 26.662 26.6619 4.50012 54 4.50012C81.3381 4.50012 103.5 26.662 103.5 54.0001C103.5 81.3382 81.3381 103.5 54 103.5C26.6619 103.5 4.5 81.3382 4.5 54.0001Z" fill="#5B5B5B"/>
<path fill-rule="evenodd" clip-rule="evenodd" d="M4.5 53.9999C4.5 51.5146 6.51472 49.4999 9 49.4999H99C101.485 49.4999 103.5 51.5146 103.5 53.9999C103.5 56.4852 101.485 58.4999 99 58.4999H9C6.51472 58.4999 4.5 56.4852 4.5 53.9999Z" fill="#5B5B5B"/>
<path fill-rule="evenodd" clip-rule="evenodd" d="M40.501 54.0001C40.8095 67.8368 45.5681 81.1582 54 92.0215C62.4318 81.1582 67.1905 67.8368 67.499 54.0001C67.1905 40.1633 62.4319 26.8419 54 15.9786C45.5681 26.8419 40.8095 40.1633 40.501 54.0001ZM54 9.00005L50.6774 5.96515C38.686 19.0931 31.8713 36.1299 31.501 53.9063C31.4997 53.9688 31.4997 54.0313 31.501 54.0938C31.8713 71.8702 38.686 88.907 50.6774 102.035C51.53 102.968 52.7359 103.5 54 103.5C55.2641 103.5 56.47 102.968 57.3226 102.035C69.314 88.907 76.1287 71.8702 76.499 54.0938C76.5003 54.0313 76.5003 53.9688 76.499 53.9063C76.1287 36.1299 69.314 19.0931 57.3226 5.96515L54 9.00005Z" fill="#5B5B5B"/>
</svg>
