<svg width="116" height="118" viewBox="0 0 116 118" fill="none" xmlns="http://www.w3.org/2000/svg">
<g clip-path="url(#clip0_6130_168542)">
<path d="M115.388 53.0586H42.8247V117.306H115.388V53.0586Z" fill="#FE4F6E"/>
<path d="M115.388 111.973H42.8247V117.558H115.388V111.973Z" fill="#1F2739"/>
<path d="M98.4364 53.0586H83.8389V111.973H98.4364V53.0586Z" fill="url(#paint0_linear_6130_168542)"/>
<path d="M115.385 53.0586H93.2959V111.973H115.385V53.0586Z" fill="url(#paint1_linear_6130_168542)"/>
<path d="M79.2792 0.442383C64.5272 0.442383 52.5557 13.4599 52.5557 29.5008V53.0582H61.4378V29.5008C61.4378 18.7928 69.4317 10.1005 79.2792 10.1005C89.1268 10.1005 97.1207 18.7928 97.1207 29.5008V53.0582H106.003V29.5008C106.003 13.4599 94.0313 0.442383 79.2792 0.442383Z" fill="#FE4F6E"/>
<path d="M87.0029 78.8828C87.0029 74.7256 83.9135 71.3662 80.0903 71.3662C76.2672 71.3662 73.1777 74.7256 73.1777 78.8828C73.1777 81.3603 74.2977 83.5859 76.0355 84.9296L75.0314 97.0233H85.4968L84.4542 84.7196C86.0375 83.3339 87.0029 81.2343 87.0029 78.8828Z" fill="white"/>
<path d="M55.9921 104.204H17.6059C9.99819 104.204 3.81934 97.4852 3.81934 89.2128C3.81934 80.9404 9.99819 74.2217 17.6059 74.2217H56.0307C63.6384 74.2217 69.8173 80.9404 69.8173 89.2128C69.7786 97.4852 63.5998 104.204 55.9921 104.204Z" fill="#E6E6E6"/>
<path d="M52.286 101.348H13.8999C6.29214 101.348 0.113281 94.6297 0.113281 86.3573C0.113281 78.0849 6.29214 71.3662 13.8999 71.3662H52.3246C59.9324 71.3662 66.1112 78.0849 66.1112 86.3573C66.0726 94.6297 59.8938 101.348 52.286 101.348Z" fill="white"/>
<path d="M15.7906 82.7461L13.2805 86.3154V86.3574L17.2581 85.7695V87.7011L13.2805 87.1972V87.2392L15.7906 90.6826L14.1301 91.6904L12.5467 87.7011H12.5081L10.8089 91.7323L9.30284 90.7245L11.813 87.2392V87.1972L7.9126 87.7431V85.8115L11.7744 86.3574V86.3154L9.30284 82.8301L10.8862 81.8223L12.5081 85.7695H12.5467L14.1301 81.7803L15.7906 82.7461Z" fill="#1F2739"/>
<path d="M30.3888 82.7461L27.8786 86.3154V86.3574L31.8563 85.7695V87.7011L27.8786 87.1972V87.2392L30.3888 90.6826L28.7282 91.6904L27.1449 87.7011H27.1063L25.4071 91.7323L23.901 90.7245L26.4111 87.2392V87.1972L22.5107 87.7431V85.8115L26.3725 86.3574V86.3154L23.901 82.8301L25.4843 81.8223L27.1063 85.7695H27.1449L28.7282 81.7803L30.3888 82.7461Z" fill="#1F2739"/>
<path d="M43.7897 82.7461L41.2795 86.3154V86.3574L45.2572 85.7695V87.7011L41.2795 87.1972V87.2392L43.7897 90.6826L42.1291 91.6904L40.5458 87.7011H40.5072L38.808 91.7323L37.3019 90.7245L39.812 87.2392V87.1972L35.9116 87.7431V85.8115L39.7734 86.3574V86.3154L37.3019 82.8301L38.8852 81.8223L40.5072 85.7695H40.5458L42.1291 81.7803L43.7897 82.7461Z" fill="#1F2739"/>
<path d="M56.9952 82.7461L54.4851 86.3154V86.3574L58.4627 85.7695V87.7011L54.4851 87.1972V87.2392L56.9952 90.6826L55.3347 91.6904L53.7513 87.7011H53.7127L52.0135 91.7323L50.5074 90.7245L53.0176 87.2392V87.1972L49.1172 87.7431V85.8115L52.979 86.3574V86.3154L50.5074 82.8301L52.0908 81.8223L53.7127 85.7695H53.7513L55.3347 81.7803L56.9952 82.7461Z" fill="#1F2739"/>
</g>
<defs>
<linearGradient id="paint0_linear_6130_168542" x1="84.7236" y1="53.0586" x2="96.1982" y2="53.61" gradientUnits="userSpaceOnUse">
<stop stop-color="#FA042F"/>
<stop offset="1" stop-color="#FF6A84"/>
</linearGradient>
<linearGradient id="paint1_linear_6130_168542" x1="94.6347" y1="53.0586" x2="111.947" y2="54.3175" gradientUnits="userSpaceOnUse">
<stop stop-color="#FA042F"/>
<stop offset="1" stop-color="#FF6A84"/>
</linearGradient>
<clipPath id="clip0_6130_168542">
<rect width="115.274" height="117.115" fill="white" transform="translate(0.112793 0.442383)"/>
</clipPath>
</defs>
</svg>
