<svg width="48" height="40" viewBox="0 0 48 40" fill="none" xmlns="http://www.w3.org/2000/svg">
    <rect width="48" height="40" rx="20" fill="white" fill-opacity="0.1" />
    <path fill-rule="evenodd" clip-rule="evenodd"
        d="M18.2929 20.2929C18.6834 19.9024 19.3166 19.9024 19.7071 20.2929L24 24.5858L28.2929 20.2929C28.6834 19.9024 29.3166 19.9024 29.7071 20.2929C30.0976 20.6834 30.0976 21.3166 29.7071 21.7071L24.7071 26.7071C24.3166 27.0976 23.6834 27.0976 23.2929 26.7071L18.2929 21.7071C17.9024 21.3166 17.9024 20.6834 18.2929 20.2929Z"
        fill="#FCFCFC" />
    <path fill-rule="evenodd" clip-rule="evenodd"
        d="M18.2929 13.2929C18.6834 12.9024 19.3166 12.9024 19.7071 13.2929L24 17.5858L28.2929 13.2929C28.6834 12.9024 29.3166 12.9024 29.7071 13.2929C30.0976 13.6834 30.0976 14.3166 29.7071 14.7071L24.7071 19.7071C24.3166 20.0976 23.6834 20.0976 23.2929 19.7071L18.2929 14.7071C17.9024 14.3166 17.9024 13.6834 18.2929 13.2929Z"
        fill="#FCFCFC" />
</svg>