<svg width="104" height="83" viewBox="0 0 104 83" fill="none" xmlns="http://www.w3.org/2000/svg">
<g clip-path="url(#clip0_6130_168564)">
<path d="M103.721 19.7725V79.3707C103.721 80.898 102.573 82.1538 101.176 82.1538H55.8472L88.2911 38.4733L99.5922 31.5496L102.604 19.7725H103.721Z" fill="#FE4F6E"/>
<path d="M102.606 19.7725L99.5947 31.5496L88.2936 38.4733L52.093 60.6699L7.10609 30.769L1.82812 19.7725H102.606Z" fill="#FE4F6E"/>
<path d="M102.822 18.9248L102.604 19.7733H102.201L102.822 18.9248Z" fill="#FCA34A"/>
<path d="M88.2937 38.4733L55.8497 82.1538H3.03901C1.6419 82.1538 0.493164 80.898 0.493164 79.3707V19.7725H1.82818L7.0751 30.7689L52.093 60.6699L88.2937 38.4733Z" fill="url(#paint0_linear_6130_168564)"/>
<path d="M52.2152 0.359375V45.0241C48.8311 45.0241 45.6643 42.3429 43.0564 39.0168C38.3373 32.9755 35.8535 25.2033 35.8535 17.2614V0.359375H52.2152Z" fill="#FE4F6E"/>
<path d="M69.4756 0.359375V15.9038C69.4756 23.9136 66.9919 31.7197 62.3349 37.8968C59.4475 41.732 55.9082 44.9902 52.2446 44.9902V0.359375H69.4756Z" fill="url(#paint1_linear_6130_168564)"/>
<path d="M48.0574 27.5449H56.8437C57.6819 27.5449 58.365 26.7982 58.365 25.8818V19.8066C58.365 18.8902 57.6819 18.1436 56.8437 18.1436H48.0574C47.2192 18.1436 46.5361 18.8902 46.5361 19.8066V25.8818C46.5361 26.7982 47.2192 27.5449 48.0574 27.5449Z" fill="white"/>
<path d="M52.4342 24.4566C49.7331 24.4566 47.5288 22.0468 47.5288 19.0941V15.9377C47.5288 12.9849 49.7331 10.5752 52.4342 10.5752C55.1353 10.5752 57.3396 12.9849 57.3396 15.9377V19.0941C57.3086 22.0468 55.1353 24.4566 52.4342 24.4566ZM52.4342 11.8988C50.3851 11.8988 48.7396 13.6977 48.7396 15.9377V19.0941C48.7396 21.3341 50.3851 23.1329 52.4342 23.1329C54.4833 23.1329 56.1288 21.3341 56.1288 19.0941V15.9377C56.0977 13.7316 54.4523 11.8988 52.4342 11.8988Z" fill="white"/>
</g>
<defs>
<linearGradient id="paint0_linear_6130_168564" x1="5.8144" y1="19.7725" x2="70.1936" y2="37.3458" gradientUnits="userSpaceOnUse">
<stop stop-color="#FA042F"/>
<stop offset="1" stop-color="#FF6A84"/>
</linearGradient>
<linearGradient id="paint1_linear_6130_168564" x1="53.2889" y1="0.359381" x2="66.7892" y2="1.37022" gradientUnits="userSpaceOnUse">
<stop stop-color="#FA042F"/>
<stop offset="1" stop-color="#FF6A84"/>
</linearGradient>
<clipPath id="clip0_6130_168564">
<rect width="103.231" height="81.7949" fill="white" transform="translate(0.494629 0.359375)"/>
</clipPath>
</defs>
</svg>
