<svg width="108" height="108" viewBox="0 0 108 108" fill="none" xmlns="http://www.w3.org/2000/svg">
<path fill-rule="evenodd" clip-rule="evenodd" d="M54.0019 13.5001C31.6344 13.5001 13.502 31.6326 13.502 54.0001C13.502 76.3676 31.6344 94.5001 54.0019 94.5001C76.3695 94.5001 94.5019 76.3676 94.5019 54.0001C94.5019 31.6326 76.3695 13.5001 54.0019 13.5001ZM4.50195 54.0001C4.50195 26.662 26.6639 4.50012 54.0019 4.50012C81.34 4.50012 103.502 26.662 103.502 54.0001C103.502 81.3382 81.34 103.5 54.0019 103.5C26.6639 103.5 4.50195 81.3382 4.50195 54.0001Z" fill="#5B5B5B"/>
<path fill-rule="evenodd" clip-rule="evenodd" d="M4.50195 53.9999C4.50195 51.5146 6.51667 49.4999 9.00195 49.4999H99.0019C101.487 49.4999 103.502 51.5146 103.502 53.9999C103.502 56.4852 101.487 58.4999 99.0019 58.4999H9.00195C6.51667 58.4999 4.50195 56.4852 4.50195 53.9999Z" fill="#5B5B5B"/>
<path fill-rule="evenodd" clip-rule="evenodd" d="M40.503 54.0001C40.8114 67.8368 45.5701 81.1582 54.0019 92.0215C62.4338 81.1582 67.1925 67.8368 67.5009 54.0001C67.1925 40.1633 62.4338 26.8419 54.002 15.9786C45.5701 26.8419 40.8114 40.1633 40.503 54.0001ZM54.002 9.00005L50.6794 5.96515C38.688 19.0931 31.8733 36.1299 31.5029 53.9063C31.5016 53.9688 31.5016 54.0313 31.5029 54.0938C31.8733 71.8702 38.688 88.907 50.6794 102.035C51.532 102.968 52.7378 103.5 54.002 103.5C55.2661 103.5 56.4719 102.968 57.3245 102.035C69.3159 88.907 76.1306 71.8702 76.501 54.0938C76.5023 54.0313 76.5023 53.9688 76.501 53.9063C76.1306 36.1299 69.3159 19.0931 57.3245 5.96515L54.002 9.00005Z" fill="#5B5B5B"/>
</svg>
