<svg width="108" height="130" viewBox="0 0 108 130" fill="none" xmlns="http://www.w3.org/2000/svg">
<g opacity="0.3">
<path opacity="0.3" d="M75.4218 26.5896C72.4695 26.5867 69.639 25.4127 67.5514 23.3251C65.4639 21.2376 64.2899 18.4071 64.287 15.4548V0H14.5314C10.6783 -2.66039e-07 6.98305 1.53025 4.25804 4.25425C1.53303 6.97825 0.00143182 10.673 0 14.526V102.125C0.00429338 105.976 1.53716 109.668 4.26186 112.39C6.98656 115.111 10.6802 116.64 14.5314 116.64H74.2554C76.1641 116.641 78.0543 116.265 79.818 115.535C81.5816 114.805 83.1842 113.735 84.5341 112.386C85.8841 111.036 86.9549 109.434 87.6855 107.671C88.4161 105.907 88.7922 104.017 88.7922 102.109V26.5896H75.4218Z" fill="#5B5B5B"/>
</g>
<path d="M88.7922 26.5896H75.4218C72.4696 26.5867 69.6391 25.4127 67.5515 23.3251C65.4639 21.2376 64.29 18.4071 64.2871 15.4548V0L88.7922 26.5896Z" fill="#5B5B5B"/>
<path d="M99.3277 92.124H31.8061C27.0165 92.124 23.1338 96.0068 23.1338 100.796V120.928C23.1338 125.717 27.0165 129.6 31.8061 129.6H99.3277C104.117 129.6 108 125.717 108 120.928V100.796C108 96.0068 104.117 92.124 99.3277 92.124Z" fill="#5B5B5B"/>
<path d="M42.4383 115.22V119.146H38.3721V115.22H42.4383Z" fill="white"/>
<path d="M62.7428 103.027V119.146H58.817V109.08L55.3232 119.162H51.9266L48.4112 109.058V119.162H44.4854V103.043H49.286L53.6708 114.269L57.9908 103.043L62.7428 103.027Z" fill="white"/>
<path d="M69.3789 113.454V119.146H65.4531V102.908H71.8197C73.7475 102.908 75.2217 103.388 76.2315 104.344C76.7425 104.846 77.1415 105.451 77.4021 106.118C77.6627 106.786 77.779 107.501 77.7435 108.216C77.7621 109.16 77.5292 110.092 77.0685 110.916C76.5968 111.72 75.8979 112.366 75.0597 112.774C74.0488 113.254 72.9384 113.487 71.8197 113.454H69.3789ZM73.7422 108.216C73.7422 106.776 72.9537 106.056 71.3769 106.056H69.3789V110.284H71.3769C72.9537 110.299 73.7422 109.609 73.7422 108.216Z" fill="white"/>
<path d="M79.3262 116.159V112.86L86.7458 102.686H90.9686V112.725H92.9235V116.143H90.9686V119.129H86.9943V116.143L79.3262 116.159ZM87.3182 107.249L83.3223 112.741H87.3182V107.249Z" fill="white"/>
<path d="M64.4975 71.2314V45.468C64.4962 45.3429 64.4837 45.2182 64.4598 45.0954C64.454 45.0587 64.445 45.0225 64.4328 44.9874C64.4133 44.903 64.388 44.82 64.3571 44.739C64.3432 44.702 64.327 44.666 64.3086 44.631C64.2756 44.5522 64.2358 44.4763 64.1898 44.4042L64.1358 44.3178C64.0678 44.22 63.992 44.1279 63.909 44.0424L63.8712 44.01C63.7976 43.9408 63.7201 43.8759 63.639 43.8156L63.5417 43.7562L63.3258 43.6374L63.2124 43.5888C63.1279 43.5561 63.0413 43.5291 62.9532 43.5078H62.8667C62.7442 43.4819 62.6194 43.4692 62.4942 43.47H26.1198C25.6199 43.5158 25.155 43.7465 24.8164 44.1171C24.4778 44.4877 24.2898 44.9714 24.2892 45.4734C24.2892 45.5058 24.2892 45.5328 24.2892 45.5652V71.3232C24.2761 71.6548 24.3814 71.9801 24.5862 72.2412C24.7633 72.5405 25.0153 72.7884 25.3174 72.9607C25.6194 73.133 25.961 73.2238 26.3088 73.224H62.4888C63.0179 73.2212 63.5248 73.0109 63.9005 72.6383C64.2761 72.2657 64.4905 71.7605 64.4975 71.2314ZM26.46 48.3192V44.4096H29.6405V48.3192H26.46ZM31.8275 48.3192V44.4096H35.0082V48.3192H31.8275ZM37.1951 48.3192V44.4096H40.3758V48.3192H37.1951ZM42.5628 48.3192V44.4096H45.7434V48.3192H42.5628ZM47.9304 48.3192V44.4096H51.1109V48.3192H47.9304ZM53.2979 48.3192V44.4096H56.4786V48.3192H53.2979ZM58.6655 48.3192V44.4096H61.8462V48.3192H58.6655ZM25.7255 67.2786V49.3776H63.1098V67.2786H25.7255ZM26.4546 72.2412V68.3316H29.6351V72.2412H26.4546ZM31.8221 72.2412V68.3316H35.0028V72.2412H31.8221ZM37.1898 72.2412V68.3316H40.3704V72.2412H37.1898ZM42.5574 72.2412V68.3316H45.7379V72.2412H42.5574ZM47.925 72.2412V68.3316H51.1055V72.2412H47.925ZM53.2925 72.2412V68.3316H56.4732V72.2412H53.2925ZM58.6601 72.2412V68.3316H61.8408V72.2412H58.6601Z" fill="#5B5B5B"/>
<path d="M48.719 57.0024L43.5512 54.0162C43.2838 53.8631 42.9811 53.7828 42.673 53.7835C42.3649 53.7841 42.0624 53.8655 41.7956 54.0196C41.5289 54.1738 41.3073 54.3952 41.1529 54.6618C40.9986 54.9285 40.9169 55.2309 40.916 55.539V61.5114C40.9169 61.8195 40.9986 62.1219 41.1529 62.3885C41.3073 62.6552 41.5289 62.8766 41.7956 63.0308C42.0624 63.1849 42.3649 63.2663 42.673 63.2669C42.9811 63.2675 43.2838 63.1873 43.5512 63.0342L48.719 60.048C48.9858 59.8933 49.2072 59.6711 49.3612 59.4039C49.5151 59.1366 49.5962 58.8336 49.5962 58.5252C49.5962 58.2168 49.5151 57.9138 49.3612 57.6465C49.2072 57.3793 48.9858 57.1571 48.719 57.0024Z" fill="#5B5B5B"/>
</svg>
