<svg width="101" height="121" viewBox="0 0 101 121" fill="none" xmlns="http://www.w3.org/2000/svg">
<g opacity="0.3">
<path opacity="0.3" d="M70.1354 24.7309C67.3901 24.7283 64.7579 23.6365 62.8167 21.6952C60.8755 19.754 59.7837 17.1218 59.781 14.3765V0H13.5129C9.92903 0 6.492 1.42371 3.95784 3.95787C1.42368 6.49203 0 9.929 0 13.5128V94.9717C0.00532198 98.5521 1.43134 101.984 3.96492 104.514C6.4985 107.044 9.9325 108.465 13.5129 108.465H69.0558C72.6361 108.465 76.0702 107.044 78.6037 104.514C81.1373 101.984 82.5633 98.5521 82.5686 94.9717V24.7309H70.1354Z" fill="#5B5B5B"/>
</g>
<path d="M82.5689 24.7309H70.1356C67.3903 24.7283 64.7581 23.6365 62.8169 21.6952C60.8757 19.754 59.7839 17.1218 59.7812 14.3765V0L82.5689 24.7309Z" fill="#5B5B5B"/>
<path d="M65.5806 75.7445H13.7385C13.2391 75.7445 12.7601 75.5461 12.407 75.1929C12.0539 74.8398 11.8555 74.3609 11.8555 73.8614C11.8568 73.3629 12.0558 72.8852 12.4088 72.5331C12.7618 72.1811 13.24 71.9834 13.7385 71.9834H65.5806C66.0787 71.9834 66.5564 72.1812 66.9086 72.5334C67.2608 72.8856 67.4586 73.3633 67.4586 73.8614C67.4593 74.1085 67.4112 74.3533 67.3171 74.5817C67.223 74.8101 67.0848 75.0177 66.9103 75.1926C66.7359 75.3675 66.5286 75.5064 66.3005 75.6011C66.0723 75.6958 65.8276 75.7445 65.5806 75.7445Z" fill="#5B5B5B"/>
<path d="M65.5806 54.5336H13.7385C13.24 54.5336 12.7618 54.3358 12.4088 53.9837C12.0558 53.6317 11.8568 53.1541 11.8555 52.6555C11.8555 52.1561 12.0539 51.677 12.407 51.3239C12.7601 50.9708 13.2391 50.7725 13.7385 50.7725H65.5806C65.8276 50.7725 66.0723 50.8212 66.3005 50.9159C66.5286 51.0106 66.7359 51.1493 66.9103 51.3243C67.0848 51.4992 67.223 51.7068 67.3171 51.9353C67.4112 52.1637 67.4593 52.4085 67.4586 52.6555C67.4586 53.1536 67.2608 53.6313 66.9086 53.9835C66.5564 54.3357 66.0787 54.5336 65.5806 54.5336Z" fill="#5B5B5B"/>
<path d="M65.5806 65.139H13.7385C13.2391 65.139 12.7601 64.9406 12.407 64.5875C12.0539 64.2343 11.8555 63.7554 11.8555 63.256C11.8568 62.7574 12.0558 62.2797 12.4088 61.9276C12.7618 61.5756 13.24 61.3779 13.7385 61.3779H65.5806C66.0787 61.3779 66.5564 61.5758 66.9086 61.928C67.2608 62.2802 67.4586 62.7579 67.4586 63.256C67.4593 63.503 67.4112 63.7478 67.3171 63.9762C67.223 64.2047 67.0848 64.4123 66.9103 64.5872C66.7359 64.7622 66.5286 64.9009 66.3005 64.9956C66.0723 65.0903 65.8276 65.139 65.5806 65.139Z" fill="#5B5B5B"/>
<path d="M45.133 43.9281H13.7385C13.24 43.9281 12.7618 43.7304 12.4088 43.3784C12.0558 43.0263 11.8568 42.5486 11.8555 42.0501C11.8555 41.5506 12.0539 41.0717 12.407 40.7185C12.7601 40.3654 13.2391 40.167 13.7385 40.167H45.133C45.6316 40.1683 46.1092 40.3673 46.4613 40.7203C46.8134 41.0733 47.0111 41.5515 47.0111 42.0501C47.0097 42.5477 46.8114 43.0246 46.4595 43.3765C46.1076 43.7285 45.6307 43.9268 45.133 43.9281Z" fill="#5B5B5B"/>
<path d="M45.133 33.3227H13.7385C13.24 33.3228 12.7618 33.125 12.4088 32.7729C12.0558 32.4209 11.8568 31.9433 11.8555 31.4447C11.8555 30.9453 12.0539 30.4662 12.407 30.1131C12.7601 29.7599 13.2391 29.5616 13.7385 29.5616H45.133C45.6316 29.563 46.1092 29.7619 46.4613 30.1149C46.8134 30.4679 47.0111 30.9462 47.0111 31.4447C47.0097 31.9424 46.8114 32.4193 46.4595 32.7712C46.1076 33.1231 45.6307 33.3214 45.133 33.3227Z" fill="#5B5B5B"/>
<path d="M92.3652 85.672H29.5763C25.1223 85.672 21.5117 89.2826 21.5117 93.7365V112.457C21.5117 116.911 25.1223 120.521 29.5763 120.521H92.3652C96.8191 120.521 100.43 116.911 100.43 112.457V93.7365C100.43 89.2826 96.8191 85.672 92.3652 85.672Z" fill="#5B5B5B"/>
<path d="M42.1102 107.149V110.8H38.334V107.149H42.1102Z" fill="white"/>
<path d="M47.6643 105.502V110.8H44.0137V95.7H49.929C51.7217 95.7 53.0926 96.1468 54.0316 97.0356C54.5067 97.5026 54.8777 98.0647 55.12 98.6853C55.3624 99.3058 55.4706 99.9706 55.4376 100.636C55.4559 101.514 55.2392 102.381 54.8099 103.147C54.3715 103.896 53.7217 104.498 52.9419 104.879C52.0014 105.324 50.9688 105.539 49.929 105.507L47.6643 105.502ZM51.7217 100.636C51.7217 99.2969 50.9886 98.6274 49.5223 98.6274H47.6643V102.559H49.5223C50.9886 102.573 51.7217 101.932 51.7217 100.636Z" fill="white"/>
<path d="M69.8645 107.159C69.2357 108.301 68.286 109.233 67.1328 109.84C65.8351 110.505 64.3921 110.834 62.9348 110.8H57.2354V95.7H62.9348C64.3932 95.6633 65.8383 95.9857 67.1428 96.6389C68.2929 97.2333 69.2402 98.1562 69.8645 99.2903C70.5178 100.494 70.8466 101.848 70.8185 103.217C70.8458 104.591 70.5171 105.949 69.8645 107.159ZM65.9376 106.401C66.3458 105.982 66.6621 105.482 66.8661 104.934C67.0702 104.386 67.1576 103.801 67.1227 103.217C67.1578 102.634 67.0705 102.05 66.8664 101.502C66.6623 100.955 66.346 100.456 65.9376 100.038C65.0243 99.2371 63.8312 98.8292 62.6184 98.9036H60.886V107.531H62.6184C63.8302 107.604 65.0224 107.198 65.9376 106.401Z" fill="white"/>
<path d="M82.7339 95.7V98.6074H76.5424V101.917H81.3229V104.693H76.5424V110.8H72.8867V95.7H82.7339Z" fill="white"/>
<path d="M64.6625 29.5616H55.7844C54.2369 29.5616 52.9824 30.8161 52.9824 32.3636V41.2417C52.9824 42.7892 54.2369 44.0437 55.7844 44.0437H64.6625C66.21 44.0437 67.4644 42.7892 67.4644 41.2417V32.3636C67.4644 30.8161 66.21 29.5616 64.6625 29.5616Z" fill="#5B5B5B"/>
</svg>
