<svg width="173" height="193" viewBox="0 0 173 193" fill="none" xmlns="http://www.w3.org/2000/svg">
<g clip-path="url(#clip0_12783_122522)">
<mask id="mask0_12783_122522" style="mask-type:luminance" maskUnits="userSpaceOnUse" x="0" y="-10" width="173" height="193">
<path d="M172.836 -10H0V183H172.836V-10Z" fill="white"/>
</mask>
<g mask="url(#mask0_12783_122522)">
<g opacity="0.2">
<path d="M86.418 161.684C44.7652 161.684 10.9464 127.865 10.9464 86.212C10.9464 44.5592 44.7652 10.7404 86.418 10.7404C128.071 10.7404 161.89 44.5592 161.89 86.212C161.89 127.865 128.071 161.684 86.418 161.684Z" stroke="#24FC06" stroke-width="15.8554"/>
</g>
<g opacity="0.4">
<path d="M86.4177 152.466C49.8521 152.466 20.1637 122.778 20.1637 86.2121C20.1637 49.6465 49.8521 19.9581 86.4177 19.9581C122.983 19.9581 152.672 49.6465 152.672 86.2121C152.672 122.778 122.983 152.466 86.4177 152.466Z" stroke="#25D366" stroke-width="13.9189"/>
</g>
<g opacity="0.6">
<path d="M86.4178 32.6331C115.988 32.6331 139.997 56.6418 139.997 86.212C139.997 115.782 115.988 139.791 86.4178 139.791C56.8476 139.791 32.8389 115.782 32.8389 86.212C32.8389 56.6418 56.8476 32.6331 86.4178 32.6331Z" stroke="#25D366" stroke-width="11.2561"/>
</g>
<path d="M54.2211 92.3979C61.7181 98.4113 76.7129 110.438 76.7129 110.438C76.7129 110.438 102.443 81.7577 116.606 65.9705" stroke="#05D352" stroke-width="16.0491" stroke-linecap="round" stroke-linejoin="round"/>
</g>
</g>
<defs>
<clipPath id="clip0_12783_122522">
<rect width="172.836" height="193" fill="white"/>
</clipPath>
</defs>
</svg>
